<?xml version="1.0" encoding="iso-8859-1"?>
<!-- Generator: Adobe Illustrator 19.0.0, SVG Export Plug-In . SVG Version: 6.00 Build 0)  -->
<svg version="1.1" id="Capa_1" xmlns="http://www.w3.org/2000/svg" xmlns:xlink="http://www.w3.org/1999/xlink" x="0px" y="0px"
	 viewBox="0 0 423.416 423.416" style="enable-background:new 0 0 423.416 423.416;" xml:space="preserve">
<g>
	<g>
		<g>
			<path d="M420.688,145.096c-2.069-2.033-4.961-2.997-7.837-2.612H300.525V92.851c0-49.052-39.764-88.816-88.816-88.816
				s-88.816,39.764-88.816,88.816v49.633H10.565c-3.135,0-6.269,0-7.837,2.612c-2.106,2.024-3.083,4.954-2.612,7.837L39.3,367.137
				c5.474,29.881,31.275,51.746,61.649,52.245h221.518c30.461-0.749,56.208-22.787,61.649-52.767L423.3,152.933
				C423.771,150.05,422.794,147.12,420.688,145.096z M143.79,92.851c0-37.51,30.408-67.918,67.918-67.918
				c37.51,0,67.918,30.408,67.918,67.918v49.633H143.79V92.851z M363.218,364.002c-3.519,19.801-20.641,34.289-40.751,34.482
				H100.949c-20.11-0.193-37.232-14.68-40.751-34.482l-37.094-200.62h377.208L363.218,364.002z"/>
			<path d="M290.076,265.259c5.771,0,10.449-4.678,10.449-10.449v-31.347c0-5.771-4.678-10.449-10.449-10.449
				c-5.771,0-10.449,4.678-10.449,10.449v31.347C279.626,260.581,284.305,265.259,290.076,265.259z"/>
			<path d="M133.341,265.259c5.771,0,10.449-4.678,10.449-10.449v-31.347c0-5.771-4.678-10.449-10.449-10.449
				c-5.771,0-10.449,4.678-10.449,10.449v31.347C122.892,260.581,127.57,265.259,133.341,265.259z"/>
		</g>
	</g>
</g>
<g>
</g>
<g>
</g>
<g>
</g>
<g>
</g>
<g>
</g>
<g>
</g>
<g>
</g>
<g>
</g>
<g>
</g>
<g>
</g>
<g>
</g>
<g>
</g>
<g>
</g>
<g>
</g>
<g>
</g>
</svg>
